<?xml version="1.0" encoding="utf-8"?>
<!-- Generator: Adobe Illustrator 16.0.0, SVG Export Plug-In . SVG Version: 6.00 Build 0)  -->
<!DOCTYPE svg PUBLIC "-//W3C//DTD SVG 1.1//EN" "http://www.w3.org/Graphics/SVG/1.1/DTD/svg11.dtd">
<svg version="1.1" id="레이어_1" xmlns="http://www.w3.org/2000/svg" xmlns:xlink="http://www.w3.org/1999/xlink" x="0px"
	 y="0px" width="256px" height="256px" viewBox="0 0 256 256" enable-background="new 0 0 256 256" xml:space="preserve">
<path fill="#00FFFF" d="M127.997,1C57.971,1,1,57.973,1,127.999C1,198.031,57.971,255,127.997,255
	C198.027,255,255,198.031,255,127.999C255,57.973,198.027,1,127.997,1z M127.998,235.71c-50.454,0-93.6-34.308-104.924-83.435
	l-12.519,2.89c-2.021-8.741-3.125-17.821-3.125-27.166c0-9.341,1.104-18.424,3.125-27.161l12.519,2.884
	C34.398,54.6,77.544,20.291,127.998,20.291c59.395,0,107.712,48.318,107.712,107.708C235.71,187.393,187.393,235.71,127.998,235.71z
	"/>
</svg>
