<?xml version="1.0" encoding="utf-8"?>
<!-- Generator: Adobe Illustrator 16.0.0, SVG Export Plug-In . SVG Version: 6.00 Build 0)  -->
<!DOCTYPE svg PUBLIC "-//W3C//DTD SVG 1.1//EN" "http://www.w3.org/Graphics/SVG/1.1/DTD/svg11.dtd">
<svg version="1.1" id="레이어_1" xmlns="http://www.w3.org/2000/svg" xmlns:xlink="http://www.w3.org/1999/xlink" x="0px"
	 y="0px" width="256px" height="256px" viewBox="0 0 256 256" enable-background="new 0 0 256 256" xml:space="preserve">
<path fill="#00FFFF" d="M128.003,1C57.972,1,1,57.969,1,128.001C1,198.025,57.972,255,128.003,255
	C198.029,255,255,198.027,255,128.001C255,57.969,198.029,1,128.003,1z M232.926,152.277
	c-11.322,49.121-54.47,83.432-104.924,83.432c-59.394,0-107.712-48.318-107.712-107.708c0-59.394,48.318-107.711,107.712-107.711
	c50.454,0,93.602,34.307,104.924,83.434l12.52-2.889c2.021,8.741,3.125,17.821,3.125,27.166c0,9.341-1.104,18.424-3.125,27.161
	L232.926,152.277z"/>
</svg>
