<?xml version="1.0" encoding="utf-8"?>
<!-- Generator: Adobe Illustrator 16.0.0, SVG Export Plug-In . SVG Version: 6.00 Build 0)  -->
<!DOCTYPE svg PUBLIC "-//W3C//DTD SVG 1.1//EN" "http://www.w3.org/Graphics/SVG/1.1/DTD/svg11.dtd">
<svg version="1.1" id="레이어_1" xmlns="http://www.w3.org/2000/svg" xmlns:xlink="http://www.w3.org/1999/xlink" x="0px"
	 y="0px" width="256px" height="256px" viewBox="0 0 256 256" enable-background="new 0 0 256 256" xml:space="preserve">
<path fill="#00FFFF" d="M35.222,122.048c-0.449-1.707-1.033-2.979-1.752-3.818c-1.288-1.497-3.189-2.246-5.705-2.246
	c-2.246,0-4.118,0.779-5.615,2.336c-1.977,2.097-2.965,5.346-2.965,9.748c0,3.415,0.658,6.185,1.977,8.311
	c1.497,2.426,3.698,3.639,6.604,3.639c1.977,0,3.594-0.567,4.852-1.707c1.287-1.138,2.156-2.785,2.605-4.94h7.232
	c-0.809,4.014-2.411,7.144-4.807,9.389c-2.605,2.456-5.96,3.685-10.063,3.685c-4.732,0-8.49-1.572-11.275-4.717
	c-2.936-3.295-4.402-7.892-4.402-13.792c0-5.84,1.512-10.406,4.537-13.701c2.845-3.114,6.573-4.672,11.186-4.672
	c4.642,0,8.34,1.423,11.096,4.268c2.216,2.336,3.459,5.076,3.729,8.221h-7.234V122.048z"/>
<path fill="#00FFFF" d="M69.497,143.07c-2.307,2.246-5.211,3.369-8.715,3.369c-3.594,0-6.559-1.123-8.895-3.369
	c-2.605-2.484-3.908-5.943-3.908-10.377c0-4.461,1.303-7.95,3.908-10.466c2.336-2.216,5.301-3.324,8.895-3.324
	c3.504,0,6.408,1.108,8.715,3.324c2.605,2.516,3.908,6.005,3.908,10.466C73.405,137.127,72.103,140.586,69.497,143.07z
	 M65.499,127.394c-0.988-1.797-2.561-2.695-4.717-2.695c-2.246,0-3.863,0.898-4.852,2.695c-0.689,1.318-1.033,3.084-1.033,5.301
	c0,2.097,0.344,3.818,1.033,5.166c0.988,1.826,2.605,2.74,4.852,2.74c2.156,0,3.729-0.914,4.717-2.74
	c0.719-1.348,1.078-3.069,1.078-5.166C66.577,130.509,66.218,128.741,65.499,127.394z"/>
<path fill="#00FFFF" d="M102.694,145.587h-6.648v-15.769c-0.03-1.438-0.24-2.529-0.629-3.278c-0.659-1.228-1.887-1.842-3.684-1.842
	c-1.558,0-2.83,0.51-3.818,1.527c-1.019,1.078-1.527,2.576-1.527,4.492v14.869H79.74v-25.965h6.424v3.818h0.045
	c0.748-1.258,1.542-2.216,2.381-2.875c1.438-1.107,3.189-1.662,5.256-1.662c2.605,0,4.701,0.734,6.289,2.201
	c1.707,1.558,2.561,3.744,2.561,6.559v17.925H102.694z"/>
<path fill="#00FFFF" d="M117.968,119.308h4.133v4.896h-4.133v14.914c0,0.868,0.119,1.407,0.359,1.616
	c0.329,0.33,1.138,0.494,2.426,0.494l1.348-0.09v5.121l-1.303,0.045l-1.842,0.135h-0.809c-2.726,0-4.612-0.523-5.66-1.571
	c-0.839-0.839-1.258-2.201-1.258-4.089v-16.575h-3.369v-4.896h3.369v-7.098h6.738L117.968,119.308L117.968,119.308z"/>
<path fill="#00FFFF" d="M151.659,138.04c-0.81,2.875-2.336,5.047-4.582,6.515c-1.856,1.258-3.998,1.887-6.425,1.887
	c-3.803,0-6.769-1.049-8.895-3.146c-2.396-2.426-3.594-6.153-3.594-11.187c-0.03-2.935,0.6-5.54,1.887-7.815
	c2.036-3.594,5.405-5.391,10.107-5.391c3.145,0,5.72,0.898,7.727,2.695c2.665,2.426,3.998,6.289,3.998,11.589v1.349h-17.07v0.18
	c0.239,1.707,0.629,2.995,1.168,3.863c0.929,1.558,2.485,2.336,4.672,2.336c0.929,0,1.781-0.254,2.562-0.765
	c0.81-0.539,1.377-1.241,1.707-2.11H151.659z M145.146,129.999c-0.181-1.887-0.81-3.309-1.888-4.268
	c-0.897-0.748-1.946-1.123-3.146-1.123c-1.467,0-2.635,0.479-3.504,1.438c-0.838,0.929-1.348,2.246-1.526,3.953H145.146z"/>
<path fill="#00FFFF" d="M181.218,145.587h-6.647v-15.769c-0.03-1.438-0.24-2.529-0.629-3.278c-0.659-1.228-1.887-1.842-3.685-1.842
	c-1.558,0-2.83,0.51-3.817,1.527c-1.02,1.078-1.527,2.576-1.527,4.492v14.869h-6.648v-25.965h6.424v3.818h0.045
	c0.748-1.258,1.543-2.216,2.382-2.875c1.438-1.107,3.188-1.662,5.256-1.662c2.604,0,4.7,0.734,6.289,2.201
	c1.707,1.558,2.562,3.744,2.562,6.559v17.925H181.218z"/>
<path fill="#00FFFF" d="M196.491,119.308h4.133v4.896h-4.133v14.914c0,0.868,0.118,1.407,0.358,1.616
	c0.33,0.33,1.139,0.494,2.426,0.494l1.349-0.09v5.121l-1.304,0.045l-1.842,0.135h-0.809c-2.727,0-4.611-0.523-5.66-1.571
	c-0.839-0.839-1.258-2.201-1.258-4.089v-16.575h-3.369v-4.896h3.369v-7.098h6.738L196.491,119.308L196.491,119.308z"/>
<path fill="#00FFFF" d="M222.859,127.618c-0.18-1.107-0.51-1.916-0.987-2.426c-0.72-0.688-1.901-1.033-3.549-1.033
	s-2.785,0.285-3.414,0.854c-0.449,0.39-0.675,0.959-0.675,1.707c0,0.719,0.539,1.288,1.617,1.707c0.658,0.3,1.946,0.646,3.863,1.033
	c3.234,0.659,5.525,1.378,6.873,2.156c2.336,1.288,3.504,3.204,3.504,5.75c0,3.354-1.348,5.811-4.043,7.366
	c-1.947,1.139-4.298,1.707-7.053,1.707c-3.354,0-6.096-0.658-8.221-1.977c-2.605-1.587-3.938-3.968-3.998-7.143h6.918
	c0,1.229,0.389,2.156,1.168,2.785c0.898,0.748,2.351,1.123,4.357,1.123c1.496,0,2.635-0.33,3.413-0.988
	c0.599-0.51,0.898-1.094,0.898-1.752c0-0.809-0.569-1.452-1.707-1.932c-0.688-0.271-2.021-0.613-3.998-1.033
	c-3.175-0.658-5.421-1.362-6.738-2.111c-2.246-1.287-3.368-3.204-3.368-5.75c0-2.336,0.719-4.282,2.155-5.84
	c1.797-1.946,4.507-2.92,8.131-2.92c3.056,0,5.495,0.524,7.322,1.572c2.455,1.408,3.803,3.789,4.043,7.143L222.859,127.618
	L222.859,127.618z"/>
</svg>
