<?xml version="1.0" encoding="utf-8"?>
<!-- Generator: Adobe Illustrator 16.0.0, SVG Export Plug-In . SVG Version: 6.00 Build 0)  -->
<!DOCTYPE svg PUBLIC "-//W3C//DTD SVG 1.1//EN" "http://www.w3.org/Graphics/SVG/1.1/DTD/svg11.dtd">
<svg version="1.1" id="레이어_1" xmlns="http://www.w3.org/2000/svg" xmlns:xlink="http://www.w3.org/1999/xlink" x="0px"
	 y="0px" width="256px" height="256px" viewBox="0 0 256 256" enable-background="new 0 0 256 256" xml:space="preserve">
<path fill="#00FFFF" d="M126.653,126.72h14.42v18.732h-6.425v-4.402c0,1.229-0.883,2.396-2.649,3.505
	c-1.978,1.258-4.447,1.887-7.412,1.887c-4.433,0-8.102-1.543-11.006-4.627c-3.145-3.354-4.717-7.922-4.717-13.702
	c0-5.211,1.332-9.493,3.998-12.848c3.024-3.803,7.277-5.705,12.758-5.705c4.791,0,8.608,1.363,11.455,4.088
	c2.245,2.217,3.504,4.807,3.772,7.771h-7.188c0-0.389-0.165-0.883-0.494-1.482c-0.359-0.688-0.824-1.332-1.393-1.932
	c-0.719-0.688-1.514-1.242-2.381-1.662c-1.079-0.449-2.218-0.674-3.415-0.674c-2.815,0-5.106,0.974-6.873,2.92
	c-1.977,2.217-2.965,5.421-2.965,9.613c0,4.313,1.048,7.473,3.145,9.479c1.707,1.616,3.982,2.426,6.828,2.426
	c1.826,0,3.474-0.39,4.942-1.168c2.396-1.258,3.594-3.385,3.594-6.379h-7.997L126.653,126.72L126.653,126.72z"/>
<path fill="#00FFFF" d="M169.104,140.602c0,1.377,0.135,2.381,0.404,3.01c0.209,0.449,0.555,0.793,1.033,1.033v0.942h-7.143
	c-0.211-0.599-0.359-1.078-0.449-1.438c-0.061-0.358-0.12-0.867-0.18-1.526c-1.14,1.139-2.143,1.962-3.011,2.471
	c-1.526,0.898-3.265,1.349-5.211,1.349c-2.127,0-3.894-0.614-5.301-1.842c-1.617-1.377-2.427-3.324-2.427-5.841
	c0-2.426,0.703-4.372,2.111-5.84c1.258-1.349,3.01-2.187,5.256-2.517l6.021-0.897c0.688-0.149,1.213-0.344,1.572-0.584
	c0.538-0.358,0.809-0.838,0.809-1.438c0-1.287-0.524-2.156-1.571-2.605c-0.629-0.299-1.559-0.449-2.785-0.449
	c-1.527,0-2.621,0.404-3.279,1.213c-0.51,0.6-0.794,1.408-0.854,2.426h-6.425c0.329-3.623,1.646-6.154,3.953-7.592
	c1.707-1.048,4.162-1.572,7.367-1.572c2.485,0,4.61,0.449,6.379,1.348c2.485,1.318,3.729,3.399,3.729,6.244V140.602L169.104,140.602
	z M162.591,132.919c-0.329,0.3-0.823,0.556-1.481,0.765c-0.689,0.239-1.692,0.465-3.01,0.674c-1.527,0.3-2.605,0.658-3.234,1.078
	c-0.898,0.629-1.348,1.588-1.348,2.875c0,1.107,0.344,1.946,1.032,2.516c0.568,0.449,1.259,0.674,2.066,0.674
	c1.587,0,2.948-0.464,4.088-1.393c1.258-0.988,1.887-2.246,1.887-3.773V132.919z"/>
<path fill="#00FFFF" d="M213.038,145.587h-6.647v-15.769c0-1.796-0.375-3.128-1.123-3.998c-0.629-0.748-1.482-1.123-2.562-1.123
	c-1.588,0-2.756,0.494-3.504,1.482c-0.688,0.929-1.033,2.201-1.033,3.818v15.588h-6.56v-15.633c-0.029-1.587-0.209-2.74-0.539-3.459
	c-0.6-1.197-1.781-1.797-3.549-1.797c-1.498,0-2.59,0.494-3.278,1.482c-0.601,0.839-0.897,2.037-0.897,3.594v15.813h-6.648v-25.965
	h6.424v3.818h0.045c0.629-1.258,1.393-2.246,2.291-2.965c1.316-1.048,2.979-1.572,4.986-1.572c1.767,0,3.188,0.345,4.268,1.033
	c0.928,0.6,1.842,1.647,2.74,3.145l0.18-0.27c0.778-1.107,1.527-1.932,2.246-2.471c1.258-0.958,2.71-1.438,4.357-1.438
	c2.545,0,4.627,0.734,6.244,2.201c1.707,1.588,2.561,3.773,2.561,6.559L213.038,145.587L213.038,145.587z"/>
<path fill="#00FFFF" d="M242.911,138.04c-0.81,2.875-2.336,5.047-4.582,6.515c-1.856,1.258-3.998,1.887-6.425,1.887
	c-3.803,0-6.768-1.049-8.895-3.146c-2.396-2.426-3.594-6.153-3.594-11.187c-0.029-2.935,0.6-5.54,1.887-7.815
	c2.036-3.594,5.405-5.391,10.107-5.391c3.145,0,5.72,0.898,7.727,2.695c2.665,2.426,3.998,6.289,3.998,11.589v1.349h-17.07v0.18
	c0.24,1.707,0.629,2.995,1.168,3.863c0.929,1.558,2.485,2.336,4.672,2.336c0.929,0,1.781-0.254,2.562-0.765
	c0.81-0.539,1.377-1.241,1.707-2.11H242.911z M236.396,129.999c-0.18-1.887-0.809-3.309-1.887-4.268
	c-0.898-0.748-1.947-1.123-3.145-1.123c-1.469,0-2.637,0.479-3.504,1.438c-0.84,0.929-1.348,2.246-1.527,3.953H236.396z"/>
</svg>
