<?xml version="1.0" encoding="utf-8"?>
<!-- Generator: Adobe Illustrator 16.0.0, SVG Export Plug-In . SVG Version: 6.00 Build 0)  -->
<!DOCTYPE svg PUBLIC "-//W3C//DTD SVG 1.1//EN" "http://www.w3.org/Graphics/SVG/1.1/DTD/svg11.dtd">
<svg version="1.1" id="레이어_1" xmlns="http://www.w3.org/2000/svg" xmlns:xlink="http://www.w3.org/1999/xlink" x="0px"
	 y="0px" width="256px" height="256px" viewBox="0 0 256 256" enable-background="new 0 0 256 256" xml:space="preserve">
<path fill="#00FFFF" d="M67.749,134.807c0.029,1.407,0.449,2.561,1.258,3.459c1.228,1.377,3.249,2.065,6.064,2.065
	c2.006,0,3.608-0.284,4.807-0.854c1.557-0.748,2.336-1.945,2.336-3.594c0-1.258-0.584-2.23-1.752-2.92
	c-0.839-0.479-2.321-0.943-4.447-1.393l-3.684-0.943c-1.857-0.449-3.22-0.809-4.088-1.078c-1.408-0.479-2.561-1.033-3.459-1.662
	c-1.108-0.778-1.932-1.736-2.471-2.875c-0.6-1.287-0.898-2.845-0.898-4.672c-0.03-2.695,0.764-4.986,2.381-6.873
	c2.275-2.635,5.869-3.953,10.781-3.953c4.642,0,8.16,1.363,10.557,4.088c1.797,2.037,2.725,4.463,2.785,7.277h-6.783
	c-0.18-1.348-0.6-2.41-1.258-3.189c-1.198-1.348-3.145-2.021-5.84-2.021c-1.588,0-2.92,0.3-3.998,0.898
	c-1.318,0.749-1.977,1.842-1.977,3.279c0,1.139,0.404,2.007,1.213,2.605c0.479,0.359,1.258,0.689,2.336,0.988l0.09,0.045l8.4,2.156
	c2.785,0.659,4.852,1.558,6.199,2.695c1.856,1.558,2.785,3.804,2.785,6.738c0,4.463-1.887,7.667-5.66,9.612
	c-2.307,1.197-4.927,1.797-7.861,1.797c-5.541,0-9.554-1.422-12.039-4.268c-1.768-2.006-2.65-4.477-2.65-7.412h6.873V134.807z"/>
<path fill="#00FFFF" d="M118.331,138.085c-0.809,2.875-2.336,5.047-4.582,6.515c-1.857,1.258-3.998,1.887-6.424,1.887
	c-3.804,0-6.769-1.049-8.895-3.146c-2.396-2.426-3.594-6.153-3.594-11.187c-0.03-2.935,0.599-5.539,1.887-7.815
	c2.036-3.594,5.405-5.391,10.107-5.391c3.145,0,5.72,0.898,7.727,2.695c2.665,2.426,3.998,6.289,3.998,11.589v1.349h-17.07v0.18
	c0.239,1.707,0.629,2.995,1.168,3.863c0.928,1.558,2.485,2.336,4.672,2.336c0.928,0,1.781-0.254,2.561-0.765
	c0.809-0.538,1.377-1.241,1.707-2.11H118.331L118.331,138.085z M111.817,130.044c-0.18-1.887-0.809-3.309-1.887-4.268
	c-0.898-0.748-1.947-1.123-3.145-1.123c-1.468,0-2.636,0.479-3.504,1.438c-0.839,0.929-1.348,2.246-1.527,3.953H111.817z"/>
<path fill="#00FFFF" d="M125.204,119.667h6.424v4.537h0.045c0.868-1.736,1.707-2.965,2.517-3.684
	c1.197-1.048,2.754-1.572,4.672-1.572l1.303,0.09v7.053c-0.301-0.09-0.629-0.149-0.988-0.18c-0.211,0-0.494,0-0.854,0
	c-2.486,0-4.254,0.674-5.301,2.021c-0.75,0.988-1.123,2.396-1.123,4.223v13.477h-6.693L125.204,119.667L125.204,119.667z"/>
<path fill="#00FFFF" d="M160.063,146.484h-7.098l-9.164-27.536h7.412l5.301,20.663h0.18l5.48-20.663h7.098L160.063,146.484z"/>
<path fill="#00FFFF" d="M182.884,116.837h-6.692v-6.424h6.692V116.837z M182.884,119.892v25.74h-6.692v-25.74H182.884z"/>
<path fill="#00FFFF" d="M214.238,136.198c-0.211,2.276-0.987,4.327-2.336,6.153c-2.098,2.756-5.166,4.133-9.209,4.133
	c-4.344,0-7.518-1.496-9.522-4.491c-1.498-2.246-2.246-5.104-2.246-8.58c0-4.462,0.957-7.936,2.875-10.422
	c2.097-2.695,5.212-4.043,9.345-4.043c2.635,0,4.926,0.645,6.873,1.932c2.573,1.707,4.012,4.388,4.313,8.041h-6.693
	c-0.24-1.107-0.629-2.021-1.168-2.74c-0.75-0.988-1.752-1.467-3.01-1.438h-0.314c-1.918,0-3.34,0.854-4.268,2.561
	c-0.689,1.318-1.033,2.98-1.033,4.986c-0.031,2.308,0.193,4.073,0.674,5.301c0.777,2.156,2.26,3.234,4.447,3.234
	c1.467,0,2.65-0.63,3.549-1.888c0.688-0.928,1.033-1.842,1.033-2.74L214.238,136.198L214.238,136.198z"/>
<path fill="#00FFFF" d="M242.898,138.085c-0.809,2.875-2.336,5.047-4.582,6.515c-1.856,1.258-3.998,1.887-6.424,1.887
	c-3.805,0-6.77-1.049-8.895-3.146c-2.396-2.426-3.594-6.153-3.594-11.187c-0.031-2.935,0.598-5.539,1.887-7.815
	c2.035-3.594,5.404-5.391,10.107-5.391c3.145,0,5.719,0.898,7.727,2.695c2.664,2.426,3.998,6.289,3.998,11.589v1.349h-17.07v0.18
	c0.238,1.707,0.629,2.995,1.168,3.863c0.928,1.558,2.484,2.336,4.672,2.336c0.928,0,1.781-0.254,2.562-0.765
	c0.81-0.538,1.377-1.241,1.707-2.11H242.898L242.898,138.085z M236.387,130.044c-0.181-1.887-0.81-3.309-1.888-4.268
	c-0.897-0.748-1.947-1.123-3.146-1.123c-1.469,0-2.637,0.479-3.504,1.438c-0.84,0.929-1.348,2.246-1.526,3.953H236.387z"/>
</svg>
