<?xml version="1.0" encoding="utf-8"?>
<!-- Generator: Adobe Illustrator 16.0.0, SVG Export Plug-In . SVG Version: 6.00 Build 0)  -->
<!DOCTYPE svg PUBLIC "-//W3C//DTD SVG 1.1//EN" "http://www.w3.org/Graphics/SVG/1.1/DTD/svg11.dtd">
<svg version="1.1" id="레이어_1" xmlns="http://www.w3.org/2000/svg" xmlns:xlink="http://www.w3.org/1999/xlink" x="0px"
	 y="0px" width="256px" height="256px" viewBox="0 0 256 256" enable-background="new 0 0 256 256" xml:space="preserve">
<path fill="#00FFFF" d="M42.618,132.954c0,4.491-1.273,7.86-3.818,10.106c-2.396,2.127-5.811,3.189-10.242,3.189
	c-2.007,0-3.879-0.3-5.615-0.898c-2.246-0.719-4.043-1.855-5.391-3.414c-0.929-1.078-1.617-2.336-2.066-3.772
	c-0.449-1.377-0.674-2.949-0.674-4.717v-23.271h7.367v22.73c0,2.336,0.599,4.104,1.797,5.301c1.078,1.139,2.561,1.707,4.447,1.707
	c2.396,0,4.147-0.584,5.256-1.752c1.078-1.078,1.617-2.725,1.617-4.941v-23.045h7.322V132.954z"/>
<path fill="#00FFFF" d="M58.296,119.118h4.133v4.896h-4.133v14.914c0,0.869,0.119,1.408,0.359,1.617
	c0.329,0.33,1.138,0.494,2.426,0.494l1.348-0.09v5.121l-1.303,0.045l-1.842,0.135h-0.809c-2.726,0-4.612-0.523-5.66-1.572
	c-0.839-0.838-1.258-2.201-1.258-4.088v-16.576h-3.369v-4.896h3.369v-7.098h6.738L58.296,119.118L58.296,119.118z"/>
<path fill="#00FFFF" d="M77.972,116.603h-6.693v-6.424h6.693V116.603z M77.972,119.657v25.739h-6.693v-25.739H77.972L77.972,119.657
	z"/>
<path fill="#00FFFF" d="M95.222,145.396h-6.693v-35.218h6.693V145.396z"/>
<path fill="#00FFFF" d="M112.472,116.603h-6.693v-6.424h6.693V116.603z M112.472,119.657v25.739h-6.693v-25.739H112.472
	L112.472,119.657z"/>
<path fill="#00FFFF" d="M129.184,119.118h4.133v4.896h-4.133v14.914c0,0.869,0.118,1.408,0.358,1.617
	c0.329,0.33,1.138,0.494,2.426,0.494l1.349-0.09v5.121l-1.303,0.045l-1.843,0.135h-0.81c-2.725,0-4.611-0.523-5.659-1.572
	c-0.839-0.838-1.258-2.201-1.258-4.088v-16.576h-3.369v-4.896h3.369v-7.098h6.738v7.098H129.184z"/>
<path fill="#00FFFF" d="M154.384,142.882c-0.929,2.127-1.633,3.653-2.11,4.582c-0.659,1.228-1.318,2.142-1.978,2.74
	s-1.481,1.019-2.471,1.258c-0.897,0.239-2.142,0.358-3.729,0.358c-0.688,0-1.213-0.016-1.572-0.045
	c-0.6-0.029-1.094-0.061-1.481-0.09v-5.524c0.119,0.028,0.284,0.06,0.494,0.09c0.209,0.029,0.448,0.045,0.719,0.045
	c1.497,0,2.591-0.135,3.279-0.403c0.778-0.301,1.348-0.838,1.707-1.617l-9.435-25.562h7.412l5.525,17.97h0.135l5.346-17.97h6.963
	L154.384,142.882z"/>
</svg>
